<svg width="458" height="111" viewBox="0 0 458 111" fill="none" xmlns="http://www.w3.org/2000/svg">
<circle cx="229" cy="28" r="28" fill="#F0F2F5"/>
<path d="M222 25.0835C222 21.5397 224.873 18.6668 228.417 18.6668C231.556 18.6668 234.171 20.9222 234.725 23.9013C234.803 24.319 235.101 24.6615 235.505 24.7953C237.827 25.5656 239.5 27.7557 239.5 30.3335C239.5 33.5552 236.889 36.1668 233.667 36.1668C233.023 36.1668 232.5 36.6892 232.5 37.3335C232.5 37.9778 233.023 38.5002 233.667 38.5002C238.177 38.5002 241.834 34.8438 241.834 30.3335C241.834 26.959 239.787 24.065 236.871 22.8197C235.873 19.0845 232.467 16.3335 228.417 16.3335C223.584 16.3335 219.667 20.251 219.667 25.0835C219.667 25.2005 219.669 25.317 219.674 25.433C217.579 26.6415 216.167 28.9048 216.167 31.5002C216.167 35.3662 219.301 38.5002 223.167 38.5002C223.811 38.5002 224.334 37.9778 224.334 37.3335C224.334 36.6892 223.811 36.1668 223.167 36.1668C220.59 36.1668 218.5 34.0775 218.5 31.5002C218.5 29.5666 219.676 27.9051 221.357 27.1971C221.843 26.9923 222.132 26.4865 222.06 25.9637C222.021 25.6765 222 25.3827 222 25.0835Z" fill="#4E5B6C"/>
<path d="M228.225 30.6282C228.667 30.2353 229.333 30.2353 229.775 30.6282L231.525 32.1837C232.007 32.6118 232.05 33.3492 231.622 33.8308C231.248 34.2521 230.636 34.338 230.167 34.0663V39.6668C230.167 40.3112 229.645 40.8335 229 40.8335C228.356 40.8335 227.834 40.3112 227.834 39.6668V34.0663C227.364 34.338 226.753 34.2521 226.378 33.8308C225.95 33.3492 225.994 32.6118 226.475 32.1837L228.225 30.6282Z" fill="#4E5B6C"/>
<g clip-path="url(#clip0_605_851)">
<path d="M127.199 88.168C126.462 88.168 125.781 88.0373 125.155 87.776C124.539 87.5053 123.998 87.1273 123.531 86.642C123.074 86.1567 122.719 85.5873 122.467 84.934C122.215 84.2807 122.089 83.5667 122.089 82.792C122.089 82.008 122.215 81.2893 122.467 80.636C122.719 79.9827 123.074 79.4133 123.531 78.928C123.989 78.4427 124.53 78.0693 125.155 77.808C125.781 77.5373 126.462 77.402 127.199 77.402C127.918 77.402 128.562 77.528 129.131 77.78C129.71 78.032 130.195 78.3587 130.587 78.76C130.989 79.1613 131.273 79.5907 131.441 80.048L130.181 80.622C129.939 80.0433 129.561 79.5767 129.047 79.222C128.534 78.858 127.918 78.676 127.199 78.676C126.471 78.676 125.823 78.8487 125.253 79.194C124.693 79.5393 124.255 80.02 123.937 80.636C123.62 81.252 123.461 81.9707 123.461 82.792C123.461 83.604 123.62 84.318 123.937 84.934C124.255 85.55 124.693 86.0307 125.253 86.376C125.823 86.7213 126.471 86.894 127.199 86.894C127.918 86.894 128.534 86.7167 129.047 86.362C129.561 85.998 129.939 85.5267 130.181 84.948L131.441 85.522C131.273 85.9793 130.989 86.4087 130.587 86.81C130.195 87.2113 129.71 87.538 129.131 87.79C128.562 88.042 127.918 88.168 127.199 88.168ZM133.154 88V77.402H134.456V88H133.154ZM136.476 88V80.454H137.778V88H136.476ZM136.476 79.25V77.57H137.778V79.25H136.476ZM143.298 88.168C142.561 88.168 141.903 87.9953 141.324 87.65C140.755 87.3047 140.307 86.8333 139.98 86.236C139.653 85.6387 139.49 84.9667 139.49 84.22C139.49 83.464 139.653 82.792 139.98 82.204C140.307 81.616 140.755 81.1493 141.324 80.804C141.903 80.4587 142.561 80.286 143.298 80.286C143.793 80.286 144.255 80.3747 144.684 80.552C145.113 80.7293 145.491 80.9673 145.818 81.266C146.145 81.5647 146.383 81.9147 146.532 82.316L145.37 82.876C145.193 82.484 144.922 82.1667 144.558 81.924C144.194 81.672 143.774 81.546 143.298 81.546C142.841 81.546 142.425 81.6627 142.052 81.896C141.688 82.1293 141.399 82.4467 141.184 82.848C140.969 83.2493 140.862 83.7113 140.862 84.234C140.862 84.738 140.969 85.1953 141.184 85.606C141.399 86.0073 141.688 86.3247 142.052 86.558C142.425 86.7913 142.841 86.908 143.298 86.908C143.774 86.908 144.194 86.7867 144.558 86.544C144.922 86.292 145.193 85.9607 145.37 85.55L146.532 86.138C146.383 86.53 146.145 86.88 145.818 87.188C145.491 87.4867 145.113 87.7247 144.684 87.902C144.255 88.0793 143.793 88.168 143.298 88.168ZM148.234 88V77.402H149.536V84.668L149.004 84.542L153.008 80.454H154.674L151.776 83.492L154.87 88H153.33L150.502 83.912L151.314 83.87L149.116 86.166L149.536 85.214V88H148.234ZM161.526 88.084C160.789 88.084 160.219 87.874 159.818 87.454C159.426 87.034 159.23 86.4413 159.23 85.676V81.7H157.858V80.454H158.138C158.474 80.454 158.74 80.3513 158.936 80.146C159.132 79.9407 159.23 79.67 159.23 79.334V78.718H160.532V80.454H162.226V81.7H160.532V85.634C160.532 85.886 160.569 86.1053 160.644 86.292C160.728 86.4787 160.863 86.628 161.05 86.74C161.237 86.8427 161.484 86.894 161.792 86.894C161.857 86.894 161.937 86.8893 162.03 86.88C162.133 86.8707 162.226 86.8613 162.31 86.852V88C162.189 88.028 162.053 88.0467 161.904 88.056C161.755 88.0747 161.629 88.084 161.526 88.084ZM167.39 88.168C166.662 88.168 166.004 88 165.416 87.664C164.828 87.3187 164.361 86.8473 164.016 86.25C163.671 85.6527 163.498 84.976 163.498 84.22C163.498 83.464 163.666 82.792 164.002 82.204C164.347 81.616 164.814 81.1493 165.402 80.804C165.99 80.4587 166.653 80.286 167.39 80.286C168.118 80.286 168.776 80.4587 169.364 80.804C169.952 81.14 170.414 81.602 170.75 82.19C171.095 82.778 171.268 83.4547 171.268 84.22C171.268 84.9853 171.091 85.6667 170.736 86.264C170.381 86.852 169.91 87.3187 169.322 87.664C168.743 88 168.099 88.168 167.39 88.168ZM167.39 86.908C167.857 86.908 168.277 86.7913 168.65 86.558C169.033 86.3247 169.331 86.0027 169.546 85.592C169.77 85.1813 169.882 84.724 169.882 84.22C169.882 83.7067 169.77 83.254 169.546 82.862C169.331 82.4607 169.033 82.1433 168.65 81.91C168.277 81.6673 167.857 81.546 167.39 81.546C166.914 81.546 166.485 81.6673 166.102 81.91C165.729 82.1433 165.43 82.4607 165.206 82.862C164.982 83.254 164.87 83.7067 164.87 84.22C164.87 84.724 164.982 85.1813 165.206 85.592C165.43 86.0027 165.729 86.3247 166.102 86.558C166.485 86.7913 166.914 86.908 167.39 86.908ZM178.06 88.168C177.519 88.168 177.029 88.042 176.59 87.79C176.161 87.538 175.825 87.188 175.582 86.74C175.349 86.2827 175.232 85.76 175.232 85.172V80.454H176.534V85.032C176.534 85.4053 176.609 85.732 176.758 86.012C176.917 86.292 177.131 86.5113 177.402 86.67C177.682 86.8287 177.999 86.908 178.354 86.908C178.709 86.908 179.021 86.8287 179.292 86.67C179.572 86.5113 179.787 86.2827 179.936 85.984C180.095 85.6853 180.174 85.3307 180.174 84.92V80.454H181.49V88H180.216V86.53L180.426 86.656C180.249 87.132 179.945 87.5053 179.516 87.776C179.096 88.0373 178.611 88.168 178.06 88.168ZM183.507 90.8V80.454H184.781V82.078L184.613 81.756C184.893 81.308 185.276 80.9533 185.761 80.692C186.246 80.4213 186.802 80.286 187.427 80.286C188.136 80.286 188.771 80.4587 189.331 80.804C189.9 81.1493 190.348 81.6207 190.675 82.218C191.002 82.806 191.165 83.478 191.165 84.234C191.165 84.9713 191.002 85.6387 190.675 86.236C190.348 86.8333 189.9 87.3047 189.331 87.65C188.771 87.9953 188.132 88.168 187.413 88.168C186.806 88.168 186.251 88.0327 185.747 87.762C185.252 87.4913 184.87 87.1087 184.599 86.614L184.809 86.39V90.8H183.507ZM187.315 86.908C187.791 86.908 188.216 86.7913 188.589 86.558C188.962 86.3247 189.252 86.0073 189.457 85.606C189.672 85.1953 189.779 84.738 189.779 84.234C189.779 83.7113 189.672 83.254 189.457 82.862C189.252 82.4607 188.962 82.1433 188.589 81.91C188.216 81.6673 187.791 81.546 187.315 81.546C186.839 81.546 186.41 81.6627 186.027 81.896C185.654 82.1293 185.355 82.4513 185.131 82.862C184.916 83.2633 184.809 83.7207 184.809 84.234C184.809 84.738 184.916 85.1953 185.131 85.606C185.355 86.0073 185.654 86.3247 186.027 86.558C186.41 86.7913 186.839 86.908 187.315 86.908ZM192.872 88V77.402H194.174V88H192.872ZM199.779 88.168C199.051 88.168 198.393 88 197.805 87.664C197.217 87.3187 196.75 86.8473 196.405 86.25C196.059 85.6527 195.887 84.976 195.887 84.22C195.887 83.464 196.055 82.792 196.391 82.204C196.736 81.616 197.203 81.1493 197.791 80.804C198.379 80.4587 199.041 80.286 199.779 80.286C200.507 80.286 201.165 80.4587 201.753 80.804C202.341 81.14 202.803 81.602 203.139 82.19C203.484 82.778 203.657 83.4547 203.657 84.22C203.657 84.9853 203.479 85.6667 203.125 86.264C202.77 86.852 202.299 87.3187 201.711 87.664C201.132 88 200.488 88.168 199.779 88.168ZM199.779 86.908C200.245 86.908 200.665 86.7913 201.039 86.558C201.421 86.3247 201.72 86.0027 201.935 85.592C202.159 85.1813 202.271 84.724 202.271 84.22C202.271 83.7067 202.159 83.254 201.935 82.862C201.72 82.4607 201.421 82.1433 201.039 81.91C200.665 81.6673 200.245 81.546 199.779 81.546C199.303 81.546 198.873 81.6673 198.491 81.91C198.117 82.1433 197.819 82.4607 197.595 82.862C197.371 83.254 197.259 83.7067 197.259 84.22C197.259 84.724 197.371 85.1813 197.595 85.592C197.819 86.0027 198.117 86.3247 198.491 86.558C198.873 86.7913 199.303 86.908 199.779 86.908ZM207.567 88.168C207.072 88.168 206.633 88.0793 206.251 87.902C205.877 87.7153 205.583 87.4633 205.369 87.146C205.154 86.8193 205.047 86.446 205.047 86.026C205.047 85.6247 205.131 85.2653 205.299 84.948C205.476 84.6213 205.747 84.346 206.111 84.122C206.484 83.898 206.951 83.7393 207.511 83.646L210.311 83.184V84.276L207.805 84.696C207.319 84.78 206.965 84.934 206.741 85.158C206.526 85.382 206.419 85.6573 206.419 85.984C206.419 86.292 206.54 86.5487 206.783 86.754C207.035 86.9593 207.347 87.062 207.721 87.062C208.197 87.062 208.607 86.964 208.953 86.768C209.307 86.5627 209.583 86.2873 209.779 85.942C209.984 85.5967 210.087 85.214 210.087 84.794V82.876C210.087 82.4653 209.933 82.134 209.625 81.882C209.326 81.6207 208.929 81.49 208.435 81.49C208.005 81.49 207.623 81.602 207.287 81.826C206.96 82.0407 206.717 82.33 206.559 82.694L205.425 82.106C205.565 81.7607 205.789 81.4527 206.097 81.182C206.405 80.902 206.764 80.6827 207.175 80.524C207.585 80.3653 208.015 80.286 208.463 80.286C209.041 80.286 209.55 80.398 209.989 80.622C210.427 80.8367 210.768 81.14 211.011 81.532C211.263 81.9147 211.389 82.3627 211.389 82.876V88H210.115V86.572L210.353 86.656C210.194 86.9547 209.979 87.216 209.709 87.44C209.438 87.664 209.121 87.8413 208.757 87.972C208.393 88.1027 207.996 88.168 207.567 88.168ZM216.837 88.168C216.128 88.168 215.489 87.9953 214.919 87.65C214.359 87.3047 213.916 86.8333 213.589 86.236C213.263 85.6387 213.099 84.9713 213.099 84.234C213.099 83.478 213.263 82.806 213.589 82.218C213.916 81.6207 214.359 81.1493 214.919 80.804C215.489 80.4587 216.128 80.286 216.837 80.286C217.463 80.286 218.018 80.4213 218.503 80.692C218.989 80.9533 219.371 81.308 219.651 81.756L219.441 82.078V77.402H220.757V88H219.483V86.39L219.651 86.614C219.39 87.1087 219.007 87.4913 218.503 87.762C218.009 88.0327 217.453 88.168 216.837 88.168ZM216.949 86.908C217.425 86.908 217.85 86.7913 218.223 86.558C218.597 86.3247 218.891 86.0073 219.105 85.606C219.329 85.1953 219.441 84.738 219.441 84.234C219.441 83.7207 219.329 83.2633 219.105 82.862C218.891 82.4513 218.597 82.1293 218.223 81.896C217.85 81.6627 217.425 81.546 216.949 81.546C216.483 81.546 216.058 81.6673 215.675 81.91C215.302 82.1433 215.008 82.4607 214.793 82.862C214.579 83.254 214.471 83.7113 214.471 84.234C214.471 84.738 214.579 85.1953 214.793 85.606C215.008 86.0073 215.302 86.3247 215.675 86.558C216.049 86.7913 216.473 86.908 216.949 86.908Z" fill="#F8931F"/>
</g>
<path d="M230.592 88.168C229.883 88.168 229.239 88 228.66 87.664C228.081 87.3187 227.619 86.852 227.274 86.264C226.938 85.6667 226.77 84.99 226.77 84.234C226.77 83.4873 226.938 82.82 227.274 82.232C227.61 81.644 228.063 81.182 228.632 80.846C229.211 80.5007 229.864 80.328 230.592 80.328C231.32 80.328 231.969 80.496 232.538 80.832C233.117 81.168 233.569 81.63 233.896 82.218C234.232 82.806 234.4 83.478 234.4 84.234C234.4 84.9993 234.227 85.6807 233.882 86.278C233.537 86.866 233.075 87.328 232.496 87.664C231.927 88 231.292 88.168 230.592 88.168ZM230.592 87.118C231.096 87.118 231.549 86.992 231.95 86.74C232.361 86.488 232.683 86.1427 232.916 85.704C233.159 85.2653 233.28 84.7753 233.28 84.234C233.28 83.6927 233.159 83.2073 232.916 82.778C232.683 82.3487 232.361 82.008 231.95 81.756C231.549 81.504 231.096 81.378 230.592 81.378C230.088 81.378 229.631 81.504 229.22 81.756C228.819 82.008 228.497 82.3487 228.254 82.778C228.011 83.2073 227.89 83.6927 227.89 84.234C227.89 84.7753 228.011 85.2653 228.254 85.704C228.497 86.1427 228.819 86.488 229.22 86.74C229.631 86.992 230.088 87.118 230.592 87.118ZM236.252 88V80.496H237.302V81.728L237.162 81.546C237.339 81.1913 237.605 80.9113 237.96 80.706C238.324 80.5007 238.762 80.398 239.276 80.398H239.752V81.448H239.094C238.552 81.448 238.118 81.616 237.792 81.952C237.465 82.288 237.302 82.764 237.302 83.38V88H236.252ZM246.749 88.168C246.049 88.168 245.419 88 244.859 87.664C244.299 87.3187 243.856 86.852 243.529 86.264C243.212 85.6667 243.053 84.9947 243.053 84.248C243.053 83.492 243.212 82.82 243.529 82.232C243.856 81.644 244.295 81.182 244.845 80.846C245.405 80.5007 246.04 80.328 246.749 80.328C247.393 80.328 247.967 80.468 248.471 80.748C248.975 81.028 249.372 81.406 249.661 81.882L249.493 82.176V77.402H250.543V88H249.493V86.32L249.661 86.474C249.4 87.0153 249.008 87.4353 248.485 87.734C247.972 88.0233 247.393 88.168 246.749 88.168ZM246.805 87.118C247.309 87.118 247.762 86.992 248.163 86.74C248.574 86.488 248.896 86.1473 249.129 85.718C249.372 85.2793 249.493 84.7893 249.493 84.248C249.493 83.7067 249.372 83.2213 249.129 82.792C248.896 82.3533 248.574 82.008 248.163 81.756C247.762 81.504 247.309 81.378 246.805 81.378C246.311 81.378 245.863 81.504 245.461 81.756C245.06 82.008 244.743 82.3487 244.509 82.778C244.285 83.2073 244.173 83.6973 244.173 84.248C244.173 84.7893 244.285 85.2793 244.509 85.718C244.743 86.1473 245.055 86.488 245.447 86.74C245.849 86.992 246.301 87.118 246.805 87.118ZM252.699 88V80.496H253.749V81.728L253.609 81.546C253.786 81.1913 254.052 80.9113 254.407 80.706C254.771 80.5007 255.21 80.398 255.723 80.398H256.199V81.448H255.541C255 81.448 254.566 81.616 254.239 81.952C253.912 82.288 253.749 82.764 253.749 83.38V88H252.699ZM259.6 88.168C259.124 88.168 258.699 88.0793 258.326 87.902C257.952 87.7153 257.658 87.4633 257.444 87.146C257.229 86.8287 257.122 86.4647 257.122 86.054C257.122 85.662 257.206 85.3073 257.374 84.99C257.542 84.6633 257.803 84.388 258.158 84.164C258.512 83.94 258.965 83.7813 259.516 83.688L262.456 83.198V84.15L259.768 84.598C259.226 84.6913 258.834 84.864 258.592 85.116C258.358 85.368 258.242 85.6667 258.242 86.012C258.242 86.348 258.372 86.6327 258.634 86.866C258.904 87.0993 259.25 87.216 259.67 87.216C260.183 87.216 260.631 87.1087 261.014 86.894C261.396 86.67 261.695 86.3713 261.91 85.998C262.124 85.6247 262.232 85.2093 262.232 84.752V82.848C262.232 82.4 262.068 82.036 261.742 81.756C261.415 81.476 260.99 81.336 260.468 81.336C260.01 81.336 259.609 81.4527 259.264 81.686C258.918 81.91 258.662 82.204 258.494 82.568L257.542 82.05C257.682 81.7327 257.901 81.4433 258.2 81.182C258.508 80.9207 258.858 80.7153 259.25 80.566C259.642 80.4073 260.048 80.328 260.468 80.328C261.018 80.328 261.504 80.4353 261.924 80.65C262.353 80.8647 262.684 81.1633 262.918 81.546C263.16 81.9193 263.282 82.3533 263.282 82.848V88H262.232V86.502L262.386 86.656C262.255 86.936 262.05 87.1927 261.77 87.426C261.499 87.65 261.177 87.832 260.804 87.972C260.44 88.1027 260.038 88.168 259.6 88.168ZM268.997 91.08C268.484 91.08 268.008 91.0007 267.569 90.842C267.14 90.6833 266.767 90.464 266.449 90.184C266.141 89.9133 265.903 89.596 265.735 89.232L266.701 88.714C266.851 89.0687 267.117 89.3767 267.499 89.638C267.882 89.8993 268.372 90.03 268.969 90.03C269.427 90.03 269.847 89.9413 270.229 89.764C270.612 89.5867 270.92 89.3253 271.153 88.98C271.387 88.6347 271.503 88.21 271.503 87.706V86.04L271.671 86.194C271.41 86.7353 271.023 87.1553 270.509 87.454C269.996 87.7433 269.436 87.888 268.829 87.888C268.129 87.888 267.499 87.72 266.939 87.384C266.379 87.048 265.936 86.5953 265.609 86.026C265.292 85.4473 265.133 84.808 265.133 84.108C265.133 83.3987 265.292 82.7593 265.609 82.19C265.936 81.6207 266.375 81.168 266.925 80.832C267.485 80.496 268.12 80.328 268.829 80.328C269.436 80.328 269.987 80.468 270.481 80.748C270.985 81.028 271.382 81.406 271.671 81.882L271.503 82.176V80.496H272.553V87.706C272.553 88.35 272.399 88.924 272.091 89.428C271.793 89.9413 271.373 90.3427 270.831 90.632C270.299 90.9307 269.688 91.08 268.997 91.08ZM268.885 86.838C269.371 86.838 269.809 86.7167 270.201 86.474C270.593 86.222 270.906 85.8907 271.139 85.48C271.382 85.06 271.503 84.6027 271.503 84.108C271.503 83.6133 271.382 83.1607 271.139 82.75C270.906 82.33 270.593 81.9987 270.201 81.756C269.809 81.504 269.371 81.378 268.885 81.378C268.391 81.378 267.943 81.504 267.541 81.756C267.14 81.9987 266.823 82.3253 266.589 82.736C266.365 83.1467 266.253 83.604 266.253 84.108C266.253 84.6027 266.365 85.06 266.589 85.48C266.823 85.8907 267.135 86.222 267.527 86.474C267.929 86.7167 268.381 86.838 268.885 86.838ZM279.26 88.168C278.784 88.168 278.359 88.0793 277.986 87.902C277.612 87.7153 277.318 87.4633 277.104 87.146C276.889 86.8287 276.782 86.4647 276.782 86.054C276.782 85.662 276.866 85.3073 277.034 84.99C277.202 84.6633 277.463 84.388 277.818 84.164C278.172 83.94 278.625 83.7813 279.176 83.688L282.116 83.198V84.15L279.428 84.598C278.886 84.6913 278.494 84.864 278.252 85.116C278.018 85.368 277.902 85.6667 277.902 86.012C277.902 86.348 278.032 86.6327 278.294 86.866C278.564 87.0993 278.91 87.216 279.33 87.216C279.843 87.216 280.291 87.1087 280.674 86.894C281.056 86.67 281.355 86.3713 281.57 85.998C281.784 85.6247 281.892 85.2093 281.892 84.752V82.848C281.892 82.4 281.728 82.036 281.402 81.756C281.075 81.476 280.65 81.336 280.128 81.336C279.67 81.336 279.269 81.4527 278.924 81.686C278.578 81.91 278.322 82.204 278.154 82.568L277.202 82.05C277.342 81.7327 277.561 81.4433 277.86 81.182C278.168 80.9207 278.518 80.7153 278.91 80.566C279.302 80.4073 279.708 80.328 280.128 80.328C280.678 80.328 281.164 80.4353 281.584 80.65C282.013 80.8647 282.344 81.1633 282.578 81.546C282.82 81.9193 282.942 82.3533 282.942 82.848V88H281.892V86.502L282.046 86.656C281.915 86.936 281.71 87.1927 281.43 87.426C281.159 87.65 280.837 87.832 280.464 87.972C280.1 88.1027 279.698 88.168 279.26 88.168ZM285.101 88V80.496H286.151V81.952L285.913 81.896C286.1 81.4107 286.403 81.028 286.823 80.748C287.253 80.468 287.747 80.328 288.307 80.328C288.839 80.328 289.315 80.4493 289.735 80.692C290.165 80.9347 290.501 81.2707 290.743 81.7C290.995 82.12 291.121 82.596 291.121 83.128V88H290.071V83.534C290.071 83.0767 289.987 82.6893 289.819 82.372C289.661 82.0547 289.432 81.812 289.133 81.644C288.844 81.4667 288.508 81.378 288.125 81.378C287.743 81.378 287.402 81.4667 287.103 81.644C286.805 81.812 286.571 82.0593 286.403 82.386C286.235 82.7033 286.151 83.086 286.151 83.534V88H285.101ZM296.515 88.168C295.815 88.168 295.185 88 294.625 87.664C294.065 87.3187 293.621 86.852 293.295 86.264C292.977 85.6667 292.819 84.9947 292.819 84.248C292.819 83.492 292.977 82.82 293.295 82.232C293.621 81.644 294.06 81.182 294.611 80.846C295.171 80.5007 295.805 80.328 296.515 80.328C297.159 80.328 297.733 80.468 298.237 80.748C298.741 81.028 299.137 81.406 299.427 81.882L299.259 82.176V77.402H300.309V88H299.259V86.32L299.427 86.474C299.165 87.0153 298.773 87.4353 298.251 87.734C297.737 88.0233 297.159 88.168 296.515 88.168ZM296.571 87.118C297.075 87.118 297.527 86.992 297.929 86.74C298.339 86.488 298.661 86.1473 298.895 85.718C299.137 85.2793 299.259 84.7893 299.259 84.248C299.259 83.7067 299.137 83.2213 298.895 82.792C298.661 82.3533 298.339 82.008 297.929 81.756C297.527 81.504 297.075 81.378 296.571 81.378C296.076 81.378 295.628 81.504 295.227 81.756C294.825 82.008 294.508 82.3487 294.275 82.778C294.051 83.2073 293.939 83.6973 293.939 84.248C293.939 84.7893 294.051 85.2793 294.275 85.718C294.508 86.1473 294.821 86.488 295.213 86.74C295.614 86.992 296.067 87.118 296.571 87.118ZM308.232 88.168C307.532 88.168 306.902 88 306.342 87.664C305.782 87.3187 305.338 86.852 305.012 86.264C304.694 85.6667 304.536 84.9947 304.536 84.248C304.536 83.492 304.694 82.82 305.012 82.232C305.338 81.644 305.777 81.182 306.328 80.846C306.888 80.5007 307.522 80.328 308.232 80.328C308.876 80.328 309.45 80.468 309.954 80.748C310.458 81.028 310.854 81.406 311.144 81.882L310.976 82.176V77.402H312.026V88H310.976V86.32L311.144 86.474C310.882 87.0153 310.49 87.4353 309.968 87.734C309.454 88.0233 308.876 88.168 308.232 88.168ZM308.288 87.118C308.792 87.118 309.244 86.992 309.646 86.74C310.056 86.488 310.378 86.1473 310.612 85.718C310.854 85.2793 310.976 84.7893 310.976 84.248C310.976 83.7067 310.854 83.2213 310.612 82.792C310.378 82.3533 310.056 82.008 309.646 81.756C309.244 81.504 308.792 81.378 308.288 81.378C307.793 81.378 307.345 81.504 306.944 81.756C306.542 82.008 306.225 82.3487 305.992 82.778C305.768 83.2073 305.656 83.6973 305.656 84.248C305.656 84.7893 305.768 85.2793 305.992 85.718C306.225 86.1473 306.538 86.488 306.93 86.74C307.331 86.992 307.784 87.118 308.288 87.118ZM314.182 88V80.496H315.232V81.728L315.092 81.546C315.269 81.1913 315.535 80.9113 315.89 80.706C316.254 80.5007 316.692 80.398 317.206 80.398H317.682V81.448H317.024C316.482 81.448 316.048 81.616 315.722 81.952C315.395 82.288 315.232 82.764 315.232 83.38V88H314.182ZM322.426 88.168C321.717 88.168 321.073 88 320.494 87.664C319.915 87.3187 319.453 86.852 319.108 86.264C318.772 85.6667 318.604 84.99 318.604 84.234C318.604 83.4873 318.772 82.82 319.108 82.232C319.444 81.644 319.897 81.182 320.466 80.846C321.045 80.5007 321.698 80.328 322.426 80.328C323.154 80.328 323.803 80.496 324.372 80.832C324.951 81.168 325.403 81.63 325.73 82.218C326.066 82.806 326.234 83.478 326.234 84.234C326.234 84.9993 326.061 85.6807 325.716 86.278C325.371 86.866 324.909 87.328 324.33 87.664C323.761 88 323.126 88.168 322.426 88.168ZM322.426 87.118C322.93 87.118 323.383 86.992 323.784 86.74C324.195 86.488 324.517 86.1427 324.75 85.704C324.993 85.2653 325.114 84.7753 325.114 84.234C325.114 83.6927 324.993 83.2073 324.75 82.778C324.517 82.3487 324.195 82.008 323.784 81.756C323.383 81.504 322.93 81.378 322.426 81.378C321.922 81.378 321.465 81.504 321.054 81.756C320.653 82.008 320.331 82.3487 320.088 82.778C319.845 83.2073 319.724 83.6927 319.724 84.234C319.724 84.7753 319.845 85.2653 320.088 85.704C320.331 86.1427 320.653 86.488 321.054 86.74C321.465 86.992 321.922 87.118 322.426 87.118ZM328.086 90.8V80.496H329.136V82.176L328.968 81.882C329.266 81.406 329.663 81.028 330.158 80.748C330.662 80.468 331.236 80.328 331.88 80.328C332.589 80.328 333.219 80.5007 333.77 80.846C334.33 81.182 334.768 81.644 335.086 82.232C335.412 82.82 335.576 83.492 335.576 84.248C335.576 84.9947 335.412 85.6667 335.086 86.264C334.768 86.852 334.33 87.3187 333.77 87.664C333.219 88 332.589 88.168 331.88 88.168C331.236 88.168 330.652 88.0233 330.13 87.734C329.616 87.4353 329.229 87.0153 328.968 86.474L329.136 86.32V90.8H328.086ZM331.824 87.118C332.328 87.118 332.776 86.992 333.168 86.74C333.569 86.488 333.882 86.1473 334.106 85.718C334.339 85.2793 334.456 84.7893 334.456 84.248C334.456 83.6973 334.339 83.2073 334.106 82.778C333.882 82.3487 333.569 82.008 333.168 81.756C332.776 81.504 332.328 81.378 331.824 81.378C331.32 81.378 330.862 81.504 330.452 81.756C330.05 82.008 329.728 82.3533 329.486 82.792C329.252 83.2213 329.136 83.7067 329.136 84.248C329.136 84.7893 329.252 85.2793 329.486 85.718C329.728 86.1473 330.05 86.488 330.452 86.74C330.862 86.992 331.32 87.118 331.824 87.118Z" fill="#667185"/>
<path d="M118.289 107.144C117.721 107.144 117.205 107.036 116.741 106.82C116.277 106.604 115.885 106.316 115.565 105.956C115.245 105.588 115.017 105.184 114.881 104.744L115.745 104.42C115.953 105.028 116.277 105.492 116.717 105.812C117.157 106.124 117.681 106.28 118.289 106.28C118.673 106.28 119.009 106.22 119.297 106.1C119.593 105.972 119.821 105.796 119.981 105.572C120.141 105.348 120.221 105.088 120.221 104.792C120.221 104.352 120.101 104.012 119.861 103.772C119.621 103.532 119.277 103.348 118.829 103.22L117.221 102.74C116.589 102.556 116.101 102.248 115.757 101.816C115.421 101.384 115.253 100.892 115.253 100.34C115.253 99.868 115.369 99.452 115.601 99.092C115.833 98.724 116.149 98.436 116.549 98.228C116.957 98.02 117.417 97.916 117.929 97.916C118.465 97.916 118.945 98.016 119.369 98.216C119.801 98.408 120.165 98.664 120.461 98.984C120.757 99.304 120.969 99.66 121.097 100.052L120.257 100.388C120.065 99.86 119.765 99.46 119.357 99.188C118.957 98.916 118.485 98.78 117.941 98.78C117.597 98.78 117.293 98.84 117.029 98.96C116.773 99.08 116.573 99.252 116.429 99.476C116.285 99.7 116.213 99.964 116.213 100.268C116.213 100.636 116.329 100.968 116.561 101.264C116.793 101.552 117.149 101.768 117.629 101.912L119.045 102.332C119.749 102.54 120.281 102.84 120.641 103.232C121.001 103.624 121.181 104.116 121.181 104.708C121.181 105.188 121.057 105.612 120.809 105.98C120.569 106.34 120.229 106.624 119.789 106.832C119.357 107.04 118.857 107.144 118.289 107.144ZM125.387 107L122.111 98.06H123.107L125.987 106.148H125.795L128.663 98.06H129.671L126.395 107H125.387ZM134.708 107.144C134.076 107.144 133.496 107.032 132.968 106.808C132.44 106.576 131.98 106.256 131.588 105.848C131.204 105.432 130.904 104.944 130.688 104.384C130.472 103.824 130.364 103.208 130.364 102.536C130.364 101.864 130.472 101.248 130.688 100.688C130.904 100.128 131.204 99.64 131.588 99.224C131.98 98.808 132.44 98.488 132.968 98.264C133.496 98.032 134.076 97.916 134.708 97.916C135.316 97.916 135.86 98.024 136.34 98.24C136.828 98.456 137.236 98.736 137.564 99.08C137.9 99.416 138.14 99.772 138.284 100.148L137.42 100.568C137.196 100.024 136.852 99.596 136.388 99.284C135.924 98.972 135.364 98.816 134.708 98.816C134.052 98.816 133.468 98.972 132.956 99.284C132.444 99.596 132.044 100.032 131.756 100.592C131.468 101.144 131.324 101.792 131.324 102.536C131.324 103.272 131.468 103.92 131.756 104.48C132.044 105.04 132.444 105.476 132.956 105.788C133.468 106.092 134.052 106.244 134.708 106.244C135.292 106.244 135.816 106.116 136.28 105.86C136.752 105.604 137.124 105.256 137.396 104.816C137.668 104.368 137.804 103.856 137.804 103.28V102.788L138.236 103.22H134.708V102.38H138.764V103.124C138.764 103.708 138.66 104.248 138.452 104.744C138.244 105.232 137.956 105.656 137.588 106.016C137.22 106.376 136.788 106.656 136.292 106.856C135.804 107.048 135.276 107.144 134.708 107.144ZM140.388 108.56V108.14C140.628 108.076 140.804 107.952 140.916 107.768C141.028 107.584 141.084 107.328 141.084 107H140.628V105.68H141.588V106.688C141.588 107.208 141.488 107.624 141.288 107.936C141.088 108.256 140.788 108.464 140.388 108.56ZM145.757 107V98.06H148.829C149.413 98.06 149.925 98.176 150.365 98.408C150.805 98.632 151.145 98.952 151.385 99.368C151.633 99.776 151.757 100.252 151.757 100.796C151.757 101.34 151.633 101.816 151.385 102.224C151.145 102.632 150.805 102.952 150.365 103.184C149.933 103.408 149.421 103.52 148.829 103.52H146.717V107H145.757ZM146.717 102.62H148.877C149.261 102.62 149.597 102.548 149.885 102.404C150.173 102.252 150.397 102.04 150.557 101.768C150.717 101.488 150.797 101.16 150.797 100.784C150.797 100.408 150.717 100.084 150.557 99.812C150.397 99.54 150.173 99.332 149.885 99.188C149.597 99.036 149.261 98.96 148.877 98.96H146.717V102.62ZM153.468 107V98.06H154.308L159.552 105.584H159.228V98.06H160.188V107H159.348L154.104 99.428H154.428V107H153.468ZM166.384 107.144C165.752 107.144 165.172 107.032 164.644 106.808C164.116 106.576 163.656 106.256 163.264 105.848C162.88 105.432 162.58 104.944 162.364 104.384C162.148 103.824 162.04 103.208 162.04 102.536C162.04 101.864 162.148 101.248 162.364 100.688C162.58 100.128 162.88 99.64 163.264 99.224C163.656 98.808 164.116 98.488 164.644 98.264C165.172 98.032 165.752 97.916 166.384 97.916C166.992 97.916 167.536 98.024 168.016 98.24C168.504 98.456 168.912 98.736 169.24 99.08C169.576 99.416 169.816 99.772 169.96 100.148L169.096 100.568C168.872 100.024 168.528 99.596 168.064 99.284C167.6 98.972 167.04 98.816 166.384 98.816C165.728 98.816 165.144 98.972 164.632 99.284C164.12 99.596 163.72 100.032 163.432 100.592C163.144 101.144 163 101.792 163 102.536C163 103.272 163.144 103.92 163.432 104.48C163.72 105.04 164.12 105.476 164.632 105.788C165.144 106.092 165.728 106.244 166.384 106.244C166.968 106.244 167.492 106.116 167.956 105.86C168.428 105.604 168.8 105.256 169.072 104.816C169.344 104.368 169.48 103.856 169.48 103.28V102.788L169.912 103.22H166.384V102.38H170.44V103.124C170.44 103.708 170.336 104.248 170.128 104.744C169.92 105.232 169.632 105.656 169.264 106.016C168.896 106.376 168.464 106.656 167.968 106.856C167.48 107.048 166.952 107.144 166.384 107.144ZM172.064 108.56V108.14C172.304 108.076 172.48 107.952 172.592 107.768C172.704 107.584 172.76 107.328 172.76 107H172.304V105.68H173.264V106.688C173.264 107.208 173.164 107.624 172.964 107.936C172.764 108.256 172.464 108.464 172.064 108.56ZM177.037 107V106.04H177.517C177.965 106.04 178.317 105.908 178.573 105.644C178.829 105.372 178.957 105.004 178.957 104.54V98.06H179.917V104.54C179.917 105.044 179.817 105.48 179.617 105.848C179.425 106.216 179.149 106.5 178.789 106.7C178.429 106.9 178.005 107 177.517 107H177.037ZM182.027 107V98.06H185.099C185.683 98.06 186.195 98.176 186.635 98.408C187.075 98.632 187.415 98.952 187.655 99.368C187.903 99.776 188.027 100.252 188.027 100.796C188.027 101.34 187.903 101.816 187.655 102.224C187.415 102.632 187.075 102.952 186.635 103.184C186.203 103.408 185.691 103.52 185.099 103.52H182.987V107H182.027ZM182.987 102.62H185.147C185.531 102.62 185.867 102.548 186.155 102.404C186.443 102.252 186.667 102.04 186.827 101.768C186.987 101.488 187.067 101.16 187.067 100.784C187.067 100.408 186.987 100.084 186.827 99.812C186.667 99.54 186.443 99.332 186.155 99.188C185.867 99.036 185.531 98.96 185.147 98.96H182.987V102.62ZM193.818 107.144C193.186 107.144 192.606 107.032 192.078 106.808C191.55 106.576 191.09 106.256 190.698 105.848C190.314 105.432 190.014 104.944 189.798 104.384C189.582 103.824 189.474 103.208 189.474 102.536C189.474 101.864 189.582 101.248 189.798 100.688C190.014 100.128 190.314 99.64 190.698 99.224C191.09 98.808 191.55 98.488 192.078 98.264C192.606 98.032 193.186 97.916 193.818 97.916C194.426 97.916 194.97 98.024 195.45 98.24C195.938 98.456 196.346 98.736 196.674 99.08C197.01 99.416 197.25 99.772 197.394 100.148L196.53 100.568C196.306 100.024 195.962 99.596 195.498 99.284C195.034 98.972 194.474 98.816 193.818 98.816C193.162 98.816 192.578 98.972 192.066 99.284C191.554 99.596 191.154 100.032 190.866 100.592C190.578 101.144 190.434 101.792 190.434 102.536C190.434 103.272 190.578 103.92 190.866 104.48C191.154 105.04 191.554 105.476 192.066 105.788C192.578 106.092 193.162 106.244 193.818 106.244C194.402 106.244 194.926 106.116 195.39 105.86C195.862 105.604 196.234 105.256 196.506 104.816C196.778 104.368 196.914 103.856 196.914 103.28V102.788L197.346 103.22H193.818V102.38H197.874V103.124C197.874 103.708 197.77 104.248 197.562 104.744C197.354 105.232 197.066 105.656 196.698 106.016C196.33 106.376 195.898 106.656 195.402 106.856C194.914 107.048 194.386 107.144 193.818 107.144ZM204.512 107.144C203.904 107.144 203.352 107 202.856 106.712C202.36 106.416 201.964 106.016 201.668 105.512C201.38 105 201.236 104.42 201.236 103.772C201.236 103.132 201.38 102.56 201.668 102.056C201.956 101.552 202.344 101.156 202.832 100.868C203.328 100.572 203.888 100.424 204.512 100.424C205.136 100.424 205.692 100.568 206.18 100.856C206.676 101.144 207.064 101.54 207.344 102.044C207.632 102.548 207.776 103.124 207.776 103.772C207.776 104.428 207.628 105.012 207.332 105.524C207.036 106.028 206.64 106.424 206.144 106.712C205.656 107 205.112 107.144 204.512 107.144ZM204.512 106.244C204.944 106.244 205.332 106.136 205.676 105.92C206.028 105.704 206.304 105.408 206.504 105.032C206.712 104.656 206.816 104.236 206.816 103.772C206.816 103.308 206.712 102.892 206.504 102.524C206.304 102.156 206.028 101.864 205.676 101.648C205.332 101.432 204.944 101.324 204.512 101.324C204.08 101.324 203.688 101.432 203.336 101.648C202.992 101.864 202.716 102.156 202.508 102.524C202.3 102.892 202.196 103.308 202.196 103.772C202.196 104.236 202.3 104.656 202.508 105.032C202.716 105.408 202.992 105.704 203.336 105.92C203.688 106.136 204.08 106.244 204.512 106.244ZM209.363 107V100.568H210.263V101.624L210.143 101.468C210.295 101.164 210.523 100.924 210.827 100.748C211.139 100.572 211.515 100.484 211.955 100.484H212.363V101.384H211.799C211.335 101.384 210.963 101.528 210.683 101.816C210.403 102.104 210.263 102.512 210.263 103.04V107H209.363ZM219.669 107.144C219.037 107.144 218.457 107.032 217.929 106.808C217.401 106.576 216.941 106.256 216.549 105.848C216.165 105.432 215.865 104.944 215.649 104.384C215.433 103.824 215.325 103.208 215.325 102.536C215.325 101.864 215.433 101.248 215.649 100.688C215.865 100.128 216.165 99.64 216.549 99.224C216.941 98.808 217.401 98.488 217.929 98.264C218.457 98.032 219.037 97.916 219.669 97.916C220.277 97.916 220.821 98.024 221.301 98.24C221.789 98.456 222.197 98.736 222.525 99.08C222.861 99.416 223.101 99.772 223.245 100.148L222.381 100.568C222.157 100.024 221.813 99.596 221.349 99.284C220.885 98.972 220.325 98.816 219.669 98.816C219.013 98.816 218.429 98.972 217.917 99.284C217.405 99.596 217.005 100.032 216.717 100.592C216.429 101.144 216.285 101.792 216.285 102.536C216.285 103.272 216.429 103.92 216.717 104.48C217.005 105.04 217.405 105.476 217.917 105.788C218.429 106.092 219.013 106.244 219.669 106.244C220.253 106.244 220.777 106.116 221.241 105.86C221.713 105.604 222.085 105.256 222.357 104.816C222.629 104.368 222.765 103.856 222.765 103.28V102.788L223.197 103.22H219.669V102.38H223.725V103.124C223.725 103.708 223.621 104.248 223.413 104.744C223.205 105.232 222.917 105.656 222.549 106.016C222.181 106.376 221.749 106.656 221.253 106.856C220.765 107.048 220.237 107.144 219.669 107.144ZM225.445 107V98.06H226.405V107H225.445ZM228.515 107V98.06H234.035V98.96H229.475V102.068H233.675V102.968H229.475V107H228.515ZM238.991 108.68C238.359 107.96 237.875 107.148 237.539 106.244C237.211 105.34 237.047 104.38 237.047 103.364C237.047 102.34 237.211 101.38 237.539 100.484C237.875 99.58 238.359 98.772 238.991 98.06H239.771C239.195 98.86 238.755 99.712 238.451 100.616C238.155 101.52 238.007 102.436 238.007 103.364C238.007 104.292 238.155 105.208 238.451 106.112C238.755 107.016 239.195 107.872 239.771 108.68H238.991ZM240.934 107V100.568H241.834V101.792L241.69 101.612C241.866 101.236 242.126 100.944 242.47 100.736C242.822 100.528 243.206 100.424 243.622 100.424C244.118 100.424 244.566 100.564 244.966 100.844C245.366 101.124 245.65 101.488 245.818 101.936L245.566 101.948C245.726 101.452 246.002 101.076 246.394 100.82C246.794 100.556 247.234 100.424 247.714 100.424C248.146 100.424 248.542 100.528 248.902 100.736C249.27 100.944 249.562 101.232 249.778 101.6C250.002 101.96 250.114 102.368 250.114 102.824V107H249.214V103.172C249.214 102.78 249.142 102.448 248.998 102.176C248.862 101.904 248.674 101.696 248.434 101.552C248.194 101.4 247.918 101.324 247.606 101.324C247.302 101.324 247.026 101.4 246.778 101.552C246.53 101.696 246.334 101.908 246.19 102.188C246.046 102.46 245.974 102.788 245.974 103.172V107H245.074V103.172C245.074 102.78 245.002 102.448 244.858 102.176C244.722 101.904 244.534 101.696 244.294 101.552C244.054 101.4 243.778 101.324 243.466 101.324C243.154 101.324 242.874 101.4 242.626 101.552C242.386 101.696 242.194 101.908 242.05 102.188C241.906 102.46 241.834 102.788 241.834 103.172V107H240.934ZM253.692 107.144C253.284 107.144 252.92 107.068 252.6 106.916C252.28 106.756 252.028 106.54 251.844 106.268C251.66 105.996 251.568 105.684 251.568 105.332C251.568 104.996 251.64 104.692 251.784 104.42C251.928 104.14 252.152 103.904 252.456 103.712C252.76 103.52 253.148 103.384 253.62 103.304L256.14 102.884V103.7L253.836 104.084C253.372 104.164 253.036 104.312 252.828 104.528C252.628 104.744 252.528 105 252.528 105.296C252.528 105.584 252.64 105.828 252.864 106.028C253.096 106.228 253.392 106.328 253.752 106.328C254.192 106.328 254.576 106.236 254.904 106.052C255.232 105.86 255.488 105.604 255.672 105.284C255.856 104.964 255.948 104.608 255.948 104.216V102.584C255.948 102.2 255.808 101.888 255.528 101.648C255.248 101.408 254.884 101.288 254.436 101.288C254.044 101.288 253.7 101.388 253.404 101.588C253.108 101.78 252.888 102.032 252.744 102.344L251.928 101.9C252.048 101.628 252.236 101.38 252.492 101.156C252.756 100.932 253.056 100.756 253.392 100.628C253.728 100.492 254.076 100.424 254.436 100.424C254.908 100.424 255.324 100.516 255.684 100.7C256.052 100.884 256.336 101.14 256.536 101.468C256.744 101.788 256.848 102.16 256.848 102.584V107H255.948V105.716L256.08 105.848C255.968 106.088 255.792 106.308 255.552 106.508C255.32 106.7 255.044 106.856 254.724 106.976C254.412 107.088 254.068 107.144 253.692 107.144ZM257.907 107L260.163 103.784L257.919 100.568H259.023L261.015 103.46H260.403L262.383 100.568H263.487L261.243 103.784L263.487 107H262.383L260.403 104.108H261.015L259.023 107H257.907ZM264.859 107V105.68H265.819V107H264.859ZM272.864 107.144C272.288 107.144 271.772 107.028 271.316 106.796C270.868 106.556 270.512 106.232 270.248 105.824C269.992 105.408 269.864 104.94 269.864 104.42C269.864 103.852 270.024 103.344 270.344 102.896C270.672 102.448 271.112 102.136 271.664 101.96V102.212C271.24 102.028 270.912 101.756 270.68 101.396C270.448 101.028 270.332 100.636 270.332 100.22C270.332 99.78 270.444 99.388 270.668 99.044C270.892 98.7 271.192 98.428 271.568 98.228C271.952 98.02 272.384 97.916 272.864 97.916C273.352 97.916 273.784 98.016 274.16 98.216C274.536 98.408 274.832 98.68 275.048 99.032C275.272 99.376 275.384 99.772 275.384 100.22C275.384 100.668 275.264 101.068 275.024 101.42C274.784 101.764 274.468 102.028 274.076 102.212L274.064 101.96C274.616 102.136 275.052 102.448 275.372 102.896C275.7 103.344 275.864 103.852 275.864 104.42C275.864 104.94 275.732 105.408 275.468 105.824C275.212 106.232 274.856 106.556 274.4 106.796C273.952 107.028 273.44 107.144 272.864 107.144ZM272.864 106.304C273.272 106.304 273.628 106.228 273.932 106.076C274.236 105.916 274.472 105.696 274.64 105.416C274.816 105.128 274.904 104.796 274.904 104.42C274.904 104.044 274.816 103.716 274.64 103.436C274.472 103.148 274.236 102.928 273.932 102.776C273.628 102.616 273.272 102.536 272.864 102.536C272.456 102.536 272.096 102.616 271.784 102.776C271.48 102.928 271.244 103.148 271.076 103.436C270.908 103.716 270.824 104.044 270.824 104.42C270.824 104.796 270.908 105.128 271.076 105.416C271.244 105.696 271.48 105.916 271.784 106.076C272.096 106.228 272.456 106.304 272.864 106.304ZM272.864 101.696C273.16 101.696 273.424 101.636 273.656 101.516C273.888 101.388 274.072 101.216 274.208 101C274.352 100.776 274.424 100.516 274.424 100.22C274.424 99.924 274.352 99.668 274.208 99.452C274.072 99.236 273.888 99.068 273.656 98.948C273.424 98.82 273.16 98.756 272.864 98.756C272.568 98.756 272.3 98.82 272.06 98.948C271.828 99.068 271.64 99.236 271.496 99.452C271.36 99.668 271.292 99.924 271.292 100.22C271.292 100.516 271.36 100.776 271.496 101C271.64 101.216 271.828 101.388 272.06 101.516C272.3 101.636 272.568 101.696 272.864 101.696ZM281.035 107.144C280.331 107.144 279.711 106.952 279.175 106.568C278.647 106.176 278.235 105.636 277.939 104.948C277.643 104.252 277.495 103.444 277.495 102.524C277.495 101.604 277.643 100.8 277.939 100.112C278.235 99.416 278.647 98.876 279.175 98.492C279.703 98.108 280.319 97.916 281.023 97.916C281.727 97.916 282.343 98.108 282.871 98.492C283.399 98.876 283.811 99.416 284.107 100.112C284.403 100.8 284.551 101.604 284.551 102.524C284.551 103.444 284.403 104.252 284.107 104.948C283.819 105.644 283.411 106.184 282.883 106.568C282.355 106.952 281.739 107.144 281.035 107.144ZM281.035 106.244C281.547 106.244 281.995 106.088 282.379 105.776C282.763 105.464 283.063 105.032 283.279 104.48C283.495 103.92 283.603 103.268 283.603 102.524C283.603 101.78 283.495 101.132 283.279 100.58C283.063 100.02 282.763 99.588 282.379 99.284C281.995 98.972 281.543 98.816 281.023 98.816C280.511 98.816 280.063 98.972 279.679 99.284C279.295 99.588 278.995 100.02 278.779 100.58C278.563 101.132 278.455 101.78 278.455 102.524C278.455 103.26 278.563 103.908 278.779 104.468C278.995 105.028 279.295 105.464 279.679 105.776C280.071 106.088 280.523 106.244 281.035 106.244ZM289.824 107.144C289.12 107.144 288.5 106.952 287.964 106.568C287.436 106.176 287.024 105.636 286.728 104.948C286.432 104.252 286.284 103.444 286.284 102.524C286.284 101.604 286.432 100.8 286.728 100.112C287.024 99.416 287.436 98.876 287.964 98.492C288.492 98.108 289.108 97.916 289.812 97.916C290.516 97.916 291.132 98.108 291.66 98.492C292.188 98.876 292.6 99.416 292.896 100.112C293.192 100.8 293.34 101.604 293.34 102.524C293.34 103.444 293.192 104.252 292.896 104.948C292.608 105.644 292.2 106.184 291.672 106.568C291.144 106.952 290.528 107.144 289.824 107.144ZM289.824 106.244C290.336 106.244 290.784 106.088 291.168 105.776C291.552 105.464 291.852 105.032 292.068 104.48C292.284 103.92 292.392 103.268 292.392 102.524C292.392 101.78 292.284 101.132 292.068 100.58C291.852 100.02 291.552 99.588 291.168 99.284C290.784 98.972 290.332 98.816 289.812 98.816C289.3 98.816 288.852 98.972 288.468 99.284C288.084 99.588 287.784 100.02 287.568 100.58C287.352 101.132 287.244 101.78 287.244 102.524C287.244 103.26 287.352 103.908 287.568 104.468C287.784 105.028 288.084 105.464 288.468 105.776C288.86 106.088 289.312 106.244 289.824 106.244ZM295.865 107L295.229 106.364L297.209 104.384L295.241 102.416L295.877 101.78L297.845 103.748L299.813 101.78L300.449 102.416L298.481 104.384L300.461 106.364L299.825 107L297.845 105.02L295.865 107ZM306.586 107V104.888H302.038V104.108L306.586 98.06H307.426V104.108H308.518V104.888H307.426V107H306.586ZM302.77 104.456L302.662 104.108H306.586V98.888L306.886 98.972L302.77 104.456ZM313.449 107.144C312.745 107.144 312.125 106.952 311.589 106.568C311.061 106.176 310.649 105.636 310.353 104.948C310.057 104.252 309.909 103.444 309.909 102.524C309.909 101.604 310.057 100.8 310.353 100.112C310.649 99.416 311.061 98.876 311.589 98.492C312.117 98.108 312.733 97.916 313.437 97.916C314.141 97.916 314.757 98.108 315.285 98.492C315.813 98.876 316.225 99.416 316.521 100.112C316.817 100.8 316.965 101.604 316.965 102.524C316.965 103.444 316.817 104.252 316.521 104.948C316.233 105.644 315.825 106.184 315.297 106.568C314.769 106.952 314.153 107.144 313.449 107.144ZM313.449 106.244C313.961 106.244 314.409 106.088 314.793 105.776C315.177 105.464 315.477 105.032 315.693 104.48C315.909 103.92 316.017 103.268 316.017 102.524C316.017 101.78 315.909 101.132 315.693 100.58C315.477 100.02 315.177 99.588 314.793 99.284C314.409 98.972 313.957 98.816 313.437 98.816C312.925 98.816 312.477 98.972 312.093 99.284C311.709 99.588 311.409 100.02 311.193 100.58C310.977 101.132 310.869 101.78 310.869 102.524C310.869 103.26 310.977 103.908 311.193 104.468C311.409 105.028 311.709 105.464 312.093 105.776C312.485 106.088 312.937 106.244 313.449 106.244ZM322.238 107.144C321.534 107.144 320.914 106.952 320.378 106.568C319.85 106.176 319.438 105.636 319.142 104.948C318.846 104.252 318.698 103.444 318.698 102.524C318.698 101.604 318.846 100.8 319.142 100.112C319.438 99.416 319.85 98.876 320.378 98.492C320.906 98.108 321.522 97.916 322.226 97.916C322.93 97.916 323.546 98.108 324.074 98.492C324.602 98.876 325.014 99.416 325.31 100.112C325.606 100.8 325.754 101.604 325.754 102.524C325.754 103.444 325.606 104.252 325.31 104.948C325.022 105.644 324.614 106.184 324.086 106.568C323.558 106.952 322.942 107.144 322.238 107.144ZM322.238 106.244C322.75 106.244 323.198 106.088 323.582 105.776C323.966 105.464 324.266 105.032 324.482 104.48C324.698 103.92 324.806 103.268 324.806 102.524C324.806 101.78 324.698 101.132 324.482 100.58C324.266 100.02 323.966 99.588 323.582 99.284C323.198 98.972 322.746 98.816 322.226 98.816C321.714 98.816 321.266 98.972 320.882 99.284C320.498 99.588 320.198 100.02 319.982 100.58C319.766 101.132 319.658 101.78 319.658 102.524C319.658 103.26 319.766 103.908 319.982 104.468C320.198 105.028 320.498 105.464 320.882 105.776C321.274 106.088 321.726 106.244 322.238 106.244ZM327.547 109.4V100.568H328.447V102.008L328.303 101.756C328.559 101.348 328.899 101.024 329.323 100.784C329.755 100.544 330.247 100.424 330.799 100.424C331.407 100.424 331.947 100.572 332.419 100.868C332.899 101.156 333.275 101.552 333.547 102.056C333.827 102.56 333.967 103.136 333.967 103.784C333.967 104.424 333.827 105 333.547 105.512C333.275 106.016 332.899 106.416 332.419 106.712C331.947 107 331.407 107.144 330.799 107.144C330.247 107.144 329.747 107.02 329.299 106.772C328.859 106.516 328.527 106.156 328.303 105.692L328.447 105.56V109.4H327.547ZM330.751 106.244C331.183 106.244 331.567 106.136 331.903 105.92C332.247 105.704 332.515 105.412 332.707 105.044C332.907 104.668 333.007 104.248 333.007 103.784C333.007 103.312 332.907 102.892 332.707 102.524C332.515 102.156 332.247 101.864 331.903 101.648C331.567 101.432 331.183 101.324 330.751 101.324C330.319 101.324 329.927 101.432 329.575 101.648C329.231 101.864 328.955 102.16 328.747 102.536C328.547 102.904 328.447 103.32 328.447 103.784C328.447 104.248 328.547 104.668 328.747 105.044C328.955 105.412 329.231 105.704 329.575 105.92C329.927 106.136 330.319 106.244 330.751 106.244ZM334.525 107L336.781 103.784L334.537 100.568H335.641L337.633 103.46H337.021L339.001 100.568H340.105L337.861 103.784L340.105 107H339.001L337.021 104.108H337.633L335.641 107H334.525ZM340.48 108.68C341.056 107.872 341.492 107.016 341.788 106.112C342.092 105.208 342.244 104.292 342.244 103.364C342.244 102.436 342.092 101.52 341.788 100.616C341.492 99.712 341.056 98.86 340.48 98.06H341.26C341.9 98.772 342.384 99.58 342.712 100.484C343.04 101.38 343.204 102.34 343.204 103.364C343.204 104.38 343.04 105.34 342.712 106.244C342.384 107.148 341.9 107.96 341.26 108.68H340.48Z" fill="#98A2B3"/>
<defs>
<clipPath id="clip0_605_851">
<rect x="121" y="72" width="101" height="20" rx="8" fill="white"/>
</clipPath>
</defs>
</svg>
