<svg width="101" height="20" viewBox="0 0 101 20" fill="none" xmlns="http://www.w3.org/2000/svg">
<g clip-path="url(#clip0_605_855)">
<path d="M6.19935 16.168C5.46202 16.168 4.78068 16.0373 4.15535 15.776C3.53935 15.5053 2.99802 15.1273 2.53135 14.642C2.07402 14.1567 1.71935 13.5873 1.46735 12.934C1.21535 12.2807 1.08935 11.5667 1.08935 10.792C1.08935 10.008 1.21535 9.28933 1.46735 8.636C1.71935 7.98267 2.07402 7.41333 2.53135 6.928C2.98869 6.44267 3.53002 6.06933 4.15535 5.808C4.78068 5.53733 5.46202 5.402 6.19935 5.402C6.91802 5.402 7.56202 5.528 8.13135 5.78C8.71002 6.032 9.19535 6.35867 9.58735 6.76C9.98869 7.16133 10.2734 7.59067 10.4414 8.048L9.18135 8.622C8.93869 8.04333 8.56069 7.57667 8.04735 7.222C7.53402 6.858 6.91802 6.676 6.19935 6.676C5.47135 6.676 4.82269 6.84867 4.25335 7.194C3.69335 7.53933 3.25469 8.02 2.93735 8.636C2.62002 9.252 2.46135 9.97067 2.46135 10.792C2.46135 11.604 2.62002 12.318 2.93735 12.934C3.25469 13.55 3.69335 14.0307 4.25335 14.376C4.82269 14.7213 5.47135 14.894 6.19935 14.894C6.91802 14.894 7.53402 14.7167 8.04735 14.362C8.56069 13.998 8.93869 13.5267 9.18135 12.948L10.4414 13.522C10.2734 13.9793 9.98869 14.4087 9.58735 14.81C9.19535 15.2113 8.71002 15.538 8.13135 15.79C7.56202 16.042 6.91802 16.168 6.19935 16.168ZM12.1535 16V5.402H13.4555V16H12.1535ZM15.4758 16V8.454H16.7778V16H15.4758ZM15.4758 7.25V5.57H16.7778V7.25H15.4758ZM22.298 16.168C21.5607 16.168 20.9027 15.9953 20.324 15.65C19.7547 15.3047 19.3067 14.8333 18.98 14.236C18.6534 13.6387 18.49 12.9667 18.49 12.22C18.49 11.464 18.6534 10.792 18.98 10.204C19.3067 9.616 19.7547 9.14933 20.324 8.804C20.9027 8.45867 21.5607 8.286 22.298 8.286C22.7927 8.286 23.2547 8.37467 23.684 8.552C24.1134 8.72933 24.4914 8.96733 24.818 9.266C25.1447 9.56467 25.3827 9.91467 25.532 10.316L24.37 10.876C24.1927 10.484 23.922 10.1667 23.558 9.924C23.194 9.672 22.774 9.546 22.298 9.546C21.8407 9.546 21.4254 9.66267 21.052 9.896C20.688 10.1293 20.3987 10.4467 20.184 10.848C19.9694 11.2493 19.862 11.7113 19.862 12.234C19.862 12.738 19.9694 13.1953 20.184 13.606C20.3987 14.0073 20.688 14.3247 21.052 14.558C21.4254 14.7913 21.8407 14.908 22.298 14.908C22.774 14.908 23.194 14.7867 23.558 14.544C23.922 14.292 24.1927 13.9607 24.37 13.55L25.532 14.138C25.3827 14.53 25.1447 14.88 24.818 15.188C24.4914 15.4867 24.1134 15.7247 23.684 15.902C23.2547 16.0793 22.7927 16.168 22.298 16.168ZM27.2336 16V5.402H28.5356V12.668L28.0036 12.542L32.0076 8.454H33.6736L30.7756 11.492L33.8696 16H32.3296L29.5016 11.912L30.3136 11.87L28.1156 14.166L28.5356 13.214V16H27.2336ZM40.5261 16.084C39.7888 16.084 39.2195 15.874 38.8181 15.454C38.4261 15.034 38.2301 14.4413 38.2301 13.676V9.7H36.8581V8.454H37.1381C37.4741 8.454 37.7401 8.35133 37.9361 8.146C38.1321 7.94067 38.2301 7.67 38.2301 7.334V6.718H39.5321V8.454H41.2261V9.7H39.5321V13.634C39.5321 13.886 39.5695 14.1053 39.6441 14.292C39.7281 14.4787 39.8635 14.628 40.0501 14.74C40.2368 14.8427 40.4841 14.894 40.7921 14.894C40.8575 14.894 40.9368 14.8893 41.0301 14.88C41.1328 14.8707 41.2261 14.8613 41.3101 14.852V16C41.1888 16.028 41.0535 16.0467 40.9041 16.056C40.7548 16.0747 40.6288 16.084 40.5261 16.084ZM46.3899 16.168C45.6619 16.168 45.0039 16 44.4159 15.664C43.8279 15.3187 43.3612 14.8473 43.0159 14.25C42.6705 13.6527 42.4979 12.976 42.4979 12.22C42.4979 11.464 42.6659 10.792 43.0019 10.204C43.3472 9.616 43.8139 9.14933 44.4019 8.804C44.9899 8.45867 45.6525 8.286 46.3899 8.286C47.1179 8.286 47.7759 8.45867 48.3639 8.804C48.9519 9.14 49.4139 9.602 49.7499 10.19C50.0952 10.778 50.2679 11.4547 50.2679 12.22C50.2679 12.9853 50.0905 13.6667 49.7359 14.264C49.3812 14.852 48.9099 15.3187 48.3219 15.664C47.7432 16 47.0992 16.168 46.3899 16.168ZM46.3899 14.908C46.8565 14.908 47.2765 14.7913 47.6499 14.558C48.0325 14.3247 48.3312 14.0027 48.5459 13.592C48.7699 13.1813 48.8819 12.724 48.8819 12.22C48.8819 11.7067 48.7699 11.254 48.5459 10.862C48.3312 10.4607 48.0325 10.1433 47.6499 9.91C47.2765 9.66733 46.8565 9.546 46.3899 9.546C45.9139 9.546 45.4845 9.66733 45.1019 9.91C44.7285 10.1433 44.4299 10.4607 44.2059 10.862C43.9819 11.254 43.8699 11.7067 43.8699 12.22C43.8699 12.724 43.9819 13.1813 44.2059 13.592C44.4299 14.0027 44.7285 14.3247 45.1019 14.558C45.4845 14.7913 45.9139 14.908 46.3899 14.908ZM57.0599 16.168C56.5186 16.168 56.0286 16.042 55.5899 15.79C55.1606 15.538 54.8246 15.188 54.5819 14.74C54.3486 14.2827 54.2319 13.76 54.2319 13.172V8.454H55.5339V13.032C55.5339 13.4053 55.6086 13.732 55.7579 14.012C55.9166 14.292 56.1313 14.5113 56.4019 14.67C56.6819 14.8287 56.9993 14.908 57.3539 14.908C57.7086 14.908 58.0213 14.8287 58.2919 14.67C58.5719 14.5113 58.7866 14.2827 58.9359 13.984C59.0946 13.6853 59.1739 13.3307 59.1739 12.92V8.454H60.4899V16H59.2159V14.53L59.4259 14.656C59.2486 15.132 58.9453 15.5053 58.5159 15.776C58.0959 16.0373 57.6106 16.168 57.0599 16.168ZM62.507 18.8V8.454H63.781V10.078L63.613 9.756C63.893 9.308 64.2757 8.95333 64.761 8.692C65.2464 8.42133 65.8017 8.286 66.427 8.286C67.1364 8.286 67.771 8.45867 68.331 8.804C68.9004 9.14933 69.3484 9.62067 69.675 10.218C70.0017 10.806 70.165 11.478 70.165 12.234C70.165 12.9713 70.0017 13.6387 69.675 14.236C69.3484 14.8333 68.9004 15.3047 68.331 15.65C67.771 15.9953 67.1317 16.168 66.413 16.168C65.8064 16.168 65.251 16.0327 64.747 15.762C64.2524 15.4913 63.8697 15.1087 63.599 14.614L63.809 14.39V18.8H62.507ZM66.315 14.908C66.791 14.908 67.2157 14.7913 67.589 14.558C67.9624 14.3247 68.2517 14.0073 68.457 13.606C68.6717 13.1953 68.779 12.738 68.779 12.234C68.779 11.7113 68.6717 11.254 68.457 10.862C68.2517 10.4607 67.9624 10.1433 67.589 9.91C67.2157 9.66733 66.791 9.546 66.315 9.546C65.839 9.546 65.4097 9.66267 65.027 9.896C64.6537 10.1293 64.355 10.4513 64.131 10.862C63.9164 11.2633 63.809 11.7207 63.809 12.234C63.809 12.738 63.9164 13.1953 64.131 13.606C64.355 14.0073 64.6537 14.3247 65.027 14.558C65.4097 14.7913 65.839 14.908 66.315 14.908ZM71.8723 16V5.402H73.1743V16H71.8723ZM78.7785 16.168C78.0505 16.168 77.3925 16 76.8045 15.664C76.2165 15.3187 75.7499 14.8473 75.4045 14.25C75.0592 13.6527 74.8865 12.976 74.8865 12.22C74.8865 11.464 75.0545 10.792 75.3905 10.204C75.7359 9.616 76.2025 9.14933 76.7905 8.804C77.3785 8.45867 78.0412 8.286 78.7785 8.286C79.5065 8.286 80.1645 8.45867 80.7525 8.804C81.3405 9.14 81.8025 9.602 82.1385 10.19C82.4839 10.778 82.6565 11.4547 82.6565 12.22C82.6565 12.9853 82.4792 13.6667 82.1245 14.264C81.7699 14.852 81.2985 15.3187 80.7105 15.664C80.1319 16 79.4879 16.168 78.7785 16.168ZM78.7785 14.908C79.2452 14.908 79.6652 14.7913 80.0385 14.558C80.4212 14.3247 80.7199 14.0027 80.9345 13.592C81.1585 13.1813 81.2705 12.724 81.2705 12.22C81.2705 11.7067 81.1585 11.254 80.9345 10.862C80.7199 10.4607 80.4212 10.1433 80.0385 9.91C79.6652 9.66733 79.2452 9.546 78.7785 9.546C78.3025 9.546 77.8732 9.66733 77.4905 9.91C77.1172 10.1433 76.8185 10.4607 76.5945 10.862C76.3705 11.254 76.2585 11.7067 76.2585 12.22C76.2585 12.724 76.3705 13.1813 76.5945 13.592C76.8185 14.0027 77.1172 14.3247 77.4905 14.558C77.8732 14.7913 78.3025 14.908 78.7785 14.908ZM86.5667 16.168C86.072 16.168 85.6333 16.0793 85.2507 15.902C84.8773 15.7153 84.5833 15.4633 84.3687 15.146C84.154 14.8193 84.0467 14.446 84.0467 14.026C84.0467 13.6247 84.1307 13.2653 84.2987 12.948C84.476 12.6213 84.7467 12.346 85.1107 12.122C85.484 11.898 85.9507 11.7393 86.5107 11.646L89.3107 11.184V12.276L86.8047 12.696C86.3193 12.78 85.9647 12.934 85.7407 13.158C85.526 13.382 85.4187 13.6573 85.4187 13.984C85.4187 14.292 85.54 14.5487 85.7827 14.754C86.0347 14.9593 86.3473 15.062 86.7207 15.062C87.1967 15.062 87.6073 14.964 87.9527 14.768C88.3073 14.5627 88.5827 14.2873 88.7787 13.942C88.984 13.5967 89.0867 13.214 89.0867 12.794V10.876C89.0867 10.4653 88.9327 10.134 88.6247 9.882C88.326 9.62067 87.9293 9.49 87.4347 9.49C87.0053 9.49 86.6227 9.602 86.2867 9.826C85.96 10.0407 85.7173 10.33 85.5587 10.694L84.4247 10.106C84.5647 9.76067 84.7887 9.45267 85.0967 9.182C85.4047 8.902 85.764 8.68267 86.1747 8.524C86.5853 8.36533 87.0147 8.286 87.4627 8.286C88.0413 8.286 88.55 8.398 88.9887 8.622C89.4273 8.83667 89.768 9.14 90.0107 9.532C90.2627 9.91467 90.3887 10.3627 90.3887 10.876V16H89.1147V14.572L89.3527 14.656C89.194 14.9547 88.9793 15.216 88.7087 15.44C88.438 15.664 88.1207 15.8413 87.7567 15.972C87.3927 16.1027 86.996 16.168 86.5667 16.168ZM95.8374 16.168C95.1281 16.168 94.4887 15.9953 93.9194 15.65C93.3594 15.3047 92.9161 14.8333 92.5894 14.236C92.2627 13.6387 92.0994 12.9713 92.0994 12.234C92.0994 11.478 92.2627 10.806 92.5894 10.218C92.9161 9.62067 93.3594 9.14933 93.9194 8.804C94.4887 8.45867 95.1281 8.286 95.8374 8.286C96.4627 8.286 97.0181 8.42133 97.5034 8.692C97.9887 8.95333 98.3714 9.308 98.6514 9.756L98.4414 10.078V5.402H99.7574V16H98.4834V14.39L98.6514 14.614C98.3901 15.1087 98.0074 15.4913 97.5034 15.762C97.0087 16.0327 96.4534 16.168 95.8374 16.168ZM95.9494 14.908C96.4254 14.908 96.8501 14.7913 97.2234 14.558C97.5967 14.3247 97.8907 14.0073 98.1054 13.606C98.3294 13.1953 98.4414 12.738 98.4414 12.234C98.4414 11.7207 98.3294 11.2633 98.1054 10.862C97.8907 10.4513 97.5967 10.1293 97.2234 9.896C96.8501 9.66267 96.4254 9.546 95.9494 9.546C95.4827 9.546 95.0581 9.66733 94.6754 9.91C94.3021 10.1433 94.0081 10.4607 93.7934 10.862C93.5787 11.254 93.4714 11.7113 93.4714 12.234C93.4714 12.738 93.5787 13.1953 93.7934 13.606C94.0081 14.0073 94.3021 14.3247 94.6754 14.558C95.0487 14.7913 95.4734 14.908 95.9494 14.908Z" fill="#F8931F"/>
</g>
<defs>
<clipPath id="clip0_605_855">
<rect width="101" height="20" rx="8" fill="white"/>
</clipPath>
</defs>
</svg>
