<svg width="56" height="56" viewBox="0 0 56 56" fill="none" xmlns="http://www.w3.org/2000/svg">
<circle cx="28" cy="28" r="28" fill="#F0F2F5"/>
<path d="M21.0002 25.0835C21.0002 21.5397 23.873 18.6668 27.4169 18.6668C30.556 18.6668 33.1709 20.9222 33.7251 23.9013C33.8028 24.319 34.1015 24.6615 34.5048 24.7953C36.8274 25.5656 38.5002 27.7557 38.5002 30.3335C38.5002 33.5552 35.8885 36.1668 32.6669 36.1668C32.0225 36.1668 31.5002 36.6892 31.5002 37.3335C31.5002 37.9778 32.0225 38.5002 32.6669 38.5002C37.1772 38.5002 40.8335 34.8438 40.8335 30.3335C40.8335 26.959 38.7875 24.065 35.8709 22.8197C34.8729 19.0845 31.4672 16.3335 27.4169 16.3335C22.5844 16.3335 18.6669 20.251 18.6669 25.0835C18.6669 25.2005 18.6692 25.317 18.6737 25.433C16.5791 26.6415 15.1669 28.9048 15.1669 31.5002C15.1669 35.3662 18.3009 38.5002 22.1669 38.5002C22.8112 38.5002 23.3335 37.9778 23.3335 37.3335C23.3335 36.6892 22.8112 36.1668 22.1669 36.1668C19.5895 36.1668 17.5002 34.0775 17.5002 31.5002C17.5002 29.5666 18.6764 27.9051 20.357 27.1971C20.8433 26.9923 21.1315 26.4865 21.0599 25.9637C21.0206 25.6765 21.0002 25.3827 21.0002 25.0835Z" fill="#4E5B6C"/>
<path d="M27.2251 30.6282C27.6671 30.2353 28.3333 30.2353 28.7753 30.6282L30.5253 32.1837C31.0069 32.6118 31.0503 33.3492 30.6222 33.8308C30.2477 34.2521 29.6365 34.338 29.1669 34.0663V39.6668C29.1669 40.3112 28.6445 40.8335 28.0002 40.8335C27.3559 40.8335 26.8335 40.3112 26.8335 39.6668V34.0663C26.364 34.338 25.7527 34.2521 25.3782 33.8308C24.9502 33.3492 24.9935 32.6118 25.4751 32.1837L27.2251 30.6282Z" fill="#4E5B6C"/>
</svg>
